<svg width="800px" height="800px" viewBox="0 0 512 512" xmlns="http://www.w3.org/2000/svg" xmlns:xlink="http://www.w3.org/1999/xlink">
  <defs>
    <clipPath id="clip-Artboard_1">
      <rect width="512" height="512"/>
    </clipPath>
  </defs>
  <g id="Artboard_1" data-name="Artboard 1" clip-path="url(#clip-Artboard_1)">
    <g id="men">
      <g id="Group_112" data-name="Group 112">
        <path id="skin-dark" d="M354.525,197.291v81.743a12.021,12.021,0,0,0,12.021-12.022l.02-22.048A29.358,29.358,0,0,1,354.525,301.1v18.05a98.31,98.31,0,0,1-44.6,82.393h1.2V440.86a55.181,55.181,0,0,1-55.181,55.181h0a55.18,55.18,0,0,1-55.18-55.181V401.543h1.551a98.31,98.31,0,0,1-44.6-82.393V301.1a29.369,29.369,0,0,1-12.042-56.154v22.066a12.022,12.022,0,0,0,12.022,12.022l.015-57.164-.007-24.579.011.849a30,30,0,0,1,30.9-29.986c14.918.445,36.54.8,67.5.8s52.58-.359,67.5-.8a30,30,0,0,1,30.9,29.986Z" fill="#8d6e63"/>
        <path id="skin-tanned" d="M354.525,197.291v81.743a12.021,12.021,0,0,0,12.021-12.022l.02-22.048A29.358,29.358,0,0,1,354.525,301.1v18.05a98.31,98.31,0,0,1-44.6,82.393h1.2V440.86a55.181,55.181,0,0,1-55.181,55.181h0a55.18,55.18,0,0,1-55.18-55.181V401.543h1.551a98.31,98.31,0,0,1-44.6-82.393V301.1a29.369,29.369,0,0,1-12.042-56.154v22.066a12.022,12.022,0,0,0,12.022,12.022l.015-57.164-.007-24.579.011.849a30,30,0,0,1,30.9-29.986c14.918.445,36.54.8,67.5.8s52.58-.359,67.5-.8a30,30,0,0,1,30.9,29.986Z" fill="#ffccbc"/>
        <path id="skin-light" d="M354.525,197.291v81.743a12.021,12.021,0,0,0,12.021-12.022l.02-22.048A29.358,29.358,0,0,1,354.525,301.1v18.05a98.31,98.31,0,0,1-44.6,82.393h1.2V440.86a55.181,55.181,0,0,1-55.181,55.181h0a55.18,55.18,0,0,1-55.18-55.181V401.543h1.551a98.31,98.31,0,0,1-44.6-82.393V301.1a29.369,29.369,0,0,1-12.042-56.154v22.066a12.022,12.022,0,0,0,12.022,12.022l.015-57.164-.007-24.579.011.849a30,30,0,0,1,30.9-29.986c14.918.445,36.54.8,67.5.8s52.58-.359,67.5-.8a30,30,0,0,1,30.9,29.986Z" fill="#fbe9e7"/>
        <g id="shadows_highlights" data-name="shadows/highlights">
          <g id="Group_100" data-name="Group 100" style="mix-blend-mode: soft-light;isolation: isolate">
            <path id="Path_484" data-name="Path 484" d="M354.525,284.984c0,10.629-9.814,19.246-20.443,19.246-10.316,0-14.513,4.614-15.988,12.4" fill="none" stroke="#4e342e" stroke-linecap="round" stroke-linejoin="round" stroke-width="8"/>
            <path id="Path_485" data-name="Path 485" d="M157.676,284.984c0,10.629,9.814,19.246,20.443,19.246,10.316,0,14.512,4.614,15.988,12.4" fill="none" stroke="#4e342e" stroke-linecap="round" stroke-linejoin="round" stroke-width="8"/>
            <path id="Path_486" data-name="Path 486" d="M310.179,407.994a100.183,100.183,0,0,1-108.109,0" fill="none" stroke="#4e342e" stroke-linecap="round" stroke-linejoin="round" stroke-width="14"/>
            <path id="Path_487" data-name="Path 487" d="M366.572,258.793a18.013,18.013,0,0,1,2.639,23.817" fill="none" stroke="#4e342e" stroke-linecap="round" stroke-linejoin="round" stroke-width="8"/>
            <path id="Path_488" data-name="Path 488" d="M145.683,258.793a18.016,18.016,0,0,0-2.639,23.817" fill="none" stroke="#4e342e" stroke-linecap="round" stroke-linejoin="round" stroke-width="8"/>
            <path id="Path_489" data-name="Path 489" d="M278.9,306.818c0,10.006-10.2,18.015-22.771,18.015s-22.772-8.009-22.772-18.015" fill="none" stroke="#4e342e" stroke-linecap="round" stroke-linejoin="round" stroke-width="8"/>
            <path id="Path_490" data-name="Path 490" d="M354.524,212.461c-21.154,3.344-50.925,5.515-98.4,5.515s-77.246-2.171-98.4-5.515" fill="none" stroke="#4e342e" stroke-linecap="round" stroke-linejoin="round" stroke-width="20"/>
            <path id="Path_491" data-name="Path 491" d="M356.525,313.15c0,54.345-44.951,98.4-100.4,98.4s-100.4-44.055-100.4-98.4" fill="none" stroke="#4e342e" stroke-linecap="round" stroke-linejoin="round" stroke-width="8"/>
          </g>
          <ellipse id="Ellipse_143" data-name="Ellipse 143" cx="6.121" cy="6.25" rx="6.121" ry="6.25" transform="translate(250.004 292.458)" fill="#ffffff" style="mix-blend-mode: soft-light;isolation: isolate"/>
        </g>
        <g id="Group_101" data-name="Group 101" style="mix-blend-mode: soft-light;isolation: isolate">
          <path id="Path_492" data-name="Path 492" d="M287.781,253.216a15.708,15.708,0,0,1,31.415,0Z" fill="#5d4037"/>
          <path id="Path_493" data-name="Path 493" d="M192.8,253.216a15.707,15.707,0,0,1,31.415,0Z" fill="#5d4037"/>
        </g>
        <g id="eyes-green_blue" data-name="eyes-green/blue">
          <g id="Group_102" data-name="Group 102">
            <path id="Path_494" data-name="Path 494" d="M287.781,253.216a15.708,15.708,0,0,0,31.415,0Z" fill="#ffffff"/>
            <path id="Path_495" data-name="Path 495" d="M192.8,253.216a15.707,15.707,0,0,0,31.415,0Z" fill="#ffffff"/>
          </g>
          <circle id="Ellipse_144" data-name="Ellipse 144" cx="8.113" cy="8.113" r="8.113" transform="translate(295.376 245.103)" fill="#00bcd4"/>
          <circle id="Ellipse_145" data-name="Ellipse 145" cx="8.113" cy="8.113" r="8.113" transform="translate(200.399 245.103)" fill="#00bcd4"/>
          <g id="Group_103" data-name="Group 103">
            <circle id="Ellipse_146" data-name="Ellipse 146" cx="8.113" cy="8.113" r="8.113" transform="translate(295.376 245.103)" fill="none" stroke="#4e342e" stroke-linecap="round" stroke-linejoin="round" stroke-width="4"/>
            <circle id="Ellipse_147" data-name="Ellipse 147" cx="8.113" cy="8.113" r="8.113" transform="translate(200.399 245.103)" fill="none" stroke="#4e342e" stroke-linecap="round" stroke-linejoin="round" stroke-width="4"/>
            <path id="Path_496" data-name="Path 496" d="M231.294,233.928a29.852,29.852,0,0,0-45.565,0" fill="none" stroke="#4e342e" stroke-linecap="round" stroke-linejoin="round" stroke-width="6"/>
            <path id="Path_497" data-name="Path 497" d="M326.271,233.928a29.852,29.852,0,0,0-45.565,0" fill="none" stroke="#4e342e" stroke-linecap="round" stroke-linejoin="round" stroke-width="6"/>
          </g>
        </g>
        <g id="eyes-brown">
          <g id="Group_104" data-name="Group 104">
            <path id="Path_498" data-name="Path 498" d="M287.781,253.216a15.708,15.708,0,0,0,31.415,0Z" fill="#ffffff"/>
            <path id="Path_499" data-name="Path 499" d="M192.8,253.216a15.707,15.707,0,0,0,31.415,0Z" fill="#ffffff"/>
          </g>
          <circle id="Ellipse_148" data-name="Ellipse 148" cx="8.113" cy="8.113" r="8.113" transform="translate(295.376 245.103)" fill="#795548"/>
          <circle id="Ellipse_149" data-name="Ellipse 149" cx="8.113" cy="8.113" r="8.113" transform="translate(200.399 245.103)" fill="#795548"/>
          <g id="Group_105" data-name="Group 105">
            <circle id="Ellipse_150" data-name="Ellipse 150" cx="8.113" cy="8.113" r="8.113" transform="translate(295.376 245.103)" fill="none" stroke="#4e342e" stroke-linecap="round" stroke-linejoin="round" stroke-width="4"/>
            <circle id="Ellipse_151" data-name="Ellipse 151" cx="8.113" cy="8.113" r="8.113" transform="translate(200.399 245.103)" fill="none" stroke="#4e342e" stroke-linecap="round" stroke-linejoin="round" stroke-width="4"/>
            <path id="Path_500" data-name="Path 500" d="M231.294,233.928a29.852,29.852,0,0,0-45.565,0" fill="none" stroke="#4e342e" stroke-linecap="round" stroke-linejoin="round" stroke-width="6"/>
            <path id="Path_501" data-name="Path 501" d="M326.271,233.928a29.852,29.852,0,0,0-45.565,0" fill="none" stroke="#4e342e" stroke-linecap="round" stroke-linejoin="round" stroke-width="6"/>
          </g>
        </g>
        <g id="eyes-dark">
          <g id="Group_106" data-name="Group 106">
            <path id="Path_502" data-name="Path 502" d="M287.781,253.216a15.708,15.708,0,0,0,31.415,0Z" fill="#ffffff"/>
            <path id="Path_503" data-name="Path 503" d="M192.8,253.216a15.707,15.707,0,0,0,31.415,0Z" fill="#ffffff"/>
          </g>
          <circle id="Ellipse_152" data-name="Ellipse 152" cx="8.113" cy="8.113" r="8.113" transform="translate(295.376 245.103)" fill="#5d4037"/>
          <circle id="Ellipse_153" data-name="Ellipse 153" cx="8.113" cy="8.113" r="8.113" transform="translate(200.399 245.103)" fill="#5d4037"/>
          <g id="Group_107" data-name="Group 107">
            <circle id="Ellipse_154" data-name="Ellipse 154" cx="8.113" cy="8.113" r="8.113" transform="translate(295.376 245.103)" fill="none" stroke="#4e342e" stroke-linecap="round" stroke-linejoin="round" stroke-width="4"/>
            <circle id="Ellipse_155" data-name="Ellipse 155" cx="8.113" cy="8.113" r="8.113" transform="translate(200.399 245.103)" fill="none" stroke="#4e342e" stroke-linecap="round" stroke-linejoin="round" stroke-width="4"/>
            <path id="Path_504" data-name="Path 504" d="M231.294,233.928a29.852,29.852,0,0,0-45.565,0" fill="none" stroke="#4e342e" stroke-linecap="round" stroke-linejoin="round" stroke-width="6"/>
            <path id="Path_505" data-name="Path 505" d="M326.271,233.928a29.852,29.852,0,0,0-45.565,0" fill="none" stroke="#4e342e" stroke-linecap="round" stroke-linejoin="round" stroke-width="6"/>
          </g>
        </g>
        <path id="hair-black" d="M354.35,279.034a12.021,12.021,0,0,0,12.021-12.022l.02-22.048V184.932c0-61.038-49.013-111.428-110.051-111.639A110.442,110.442,0,0,0,145.508,183.734v83.278a12.021,12.021,0,0,0,12.021,12.022l.016-57.164.072-23.824a30,30,0,0,1,30.9-29.9c14.923.447,36.576.808,67.607.808,30.924,0,52.532-.358,67.448-.8a30,30,0,0,1,30.9,30.033Z" fill="#5d4037"/>
        <path id="hair-brown" d="M354.35,279.034a12.021,12.021,0,0,0,12.021-12.022l.02-22.048V184.932c0-61.038-49.013-111.428-110.051-111.639A110.442,110.442,0,0,0,145.508,183.734v83.278a12.021,12.021,0,0,0,12.021,12.022l.016-57.164.072-23.824a30,30,0,0,1,30.9-29.9c14.923.447,36.576.808,67.607.808,30.924,0,52.532-.358,67.448-.8a30,30,0,0,1,30.9,30.033Z" fill="#795548"/>
        <path id="hair-blonde" d="M354.35,279.034a12.021,12.021,0,0,0,12.021-12.022l.02-22.048V184.932c0-61.038-49.013-111.428-110.051-111.639A110.442,110.442,0,0,0,145.508,183.734v83.278a12.021,12.021,0,0,0,12.021,12.022l.016-57.164.072-23.824a30,30,0,0,1,30.9-29.9c14.923.447,36.576.808,67.607.808,30.924,0,52.532-.358,67.448-.8a30,30,0,0,1,30.9,30.033Z" fill="#ffd600"/>
        <path id="hair-grey" d="M354.35,279.034a12.021,12.021,0,0,0,12.021-12.022l.02-22.048V184.932c0-61.038-49.013-111.428-110.051-111.639A110.442,110.442,0,0,0,145.508,183.734v83.278a12.021,12.021,0,0,0,12.021,12.022l.016-57.164.072-23.824a30,30,0,0,1,30.9-29.9c14.923.447,36.576.808,67.607.808,30.924,0,52.532-.358,67.448-.8a30,30,0,0,1,30.9,30.033Z" fill="#bdbdbd"/>
        <g id="lines">
          <g id="Path_506" data-name="Path 506" fill="none" stroke-linecap="round" stroke-linejoin="round">
            <path d="M400.277,174.287c-10.548,1.983-18.811,5.281-32.572,8.454h-.375c0-9.747-1.185-40.835-3.488-49.854C351.465,84.408,307.948,48.6,256.165,48.6s-95.3,35.807-107.676,84.283c-2.3,9.02-3.569,40.109-3.569,49.858h-.375c-13.761-3.173-22.025-6.47-32.573-8.454-2.252-.424-5.547.564-5.547,4.6,0,6,3.5,8.638,7.3,10a225.879,225.879,0,0,0,31.786,9.338v46.812A29.365,29.365,0,0,0,157.724,301.1v18.05a98.31,98.31,0,0,0,44.6,82.393h-1.551V440.86a55.18,55.18,0,0,0,55.18,55.181h0A55.181,55.181,0,0,0,311.13,440.86V401.543h-1.2a98.31,98.31,0,0,0,44.6-82.393V301.1a29.358,29.358,0,0,0,12.041-56.136l-.02,22.048a12.021,12.021,0,0,1-12.021,12.022v-.009a12.017,12.017,0,0,0,11.846-12.013l.02-22.048v-46.67a225.5,225.5,0,0,0,32.136-9.412c3.793-1.362,7.3-4,7.3-10C405.824,174.851,402.529,173.863,400.277,174.287Zm-32.8,8.506c-.366.084-.739.168-1.113.252h0C366.741,182.961,367.114,182.877,367.48,182.793Zm-207.208,3h0l.1.016h0Zm-14.754-2.83h0l-.745-.169Zm12.187,96.072c-.059,0-.117-.008-.176-.009l.016-57.155.065-21.428.1.017.006,21.411Z" stroke="none"/>
            <path d="M 256.1650085449219 48.5989990234375 C 204.3840026855469 48.5989990234375 160.8679504394531 84.406005859375 148.489013671875 132.8820190429688 C 146.1860046386719 141.9019470214844 144.9199523925781 172.9909973144531 144.9199523925781 182.7400207519531 L 144.5449523925781 182.7409973144531 C 130.7839965820312 179.5679931640625 122.52001953125 176.27099609375 111.9719543457031 174.2870178222656 C 109.719970703125 173.8629150390625 106.4249267578125 174.8509826660156 106.4249572753906 178.8820190429688 C 106.4249572753906 184.8820190429688 109.9290161132812 187.52001953125 113.7219543457031 188.8820190429688 C 123.0940246582031 192.2460021972656 132.551025390625 195.4840087890625 145.5080261230469 198.2200012207031 L 145.5080261230469 245.0320129394531 C 135.3910217285156 249.6679992675781 128.3600158691406 259.8780212402344 128.3600158691406 271.7350158691406 C 128.3600158691406 287.9530029296875 141.5070190429688 301.1000061035156 157.7239990234375 301.1000061035156 L 157.7239990234375 319.1500244140625 C 157.7239990234375 353.635009765625 175.468017578125 383.9719848632812 202.3200073242188 401.5430297851562 L 200.7689514160156 401.5430297851562 L 200.7689514160156 440.8600158691406 C 200.7689514160156 471.3359985351562 225.4739990234375 496.041015625 255.9490051269531 496.041015625 C 286.4250183105469 496.041015625 311.1300048828125 471.3359985351562 311.1300048828125 440.8600158691406 L 311.1300048828125 401.5430297851562 L 309.9290161132812 401.5430297851562 C 336.781005859375 383.9719848632812 354.5250244140625 353.635009765625 354.5250244140625 319.1500244140625 L 354.5250244140625 301.1000061035156 C 370.7420043945312 301.1000061035156 383.8890075683594 287.9530029296875 383.8890075683594 271.7350158691406 C 383.8890075683594 259.81201171875 376.7740173339844 249.5630187988281 366.5660095214844 244.9640197753906 L 366.5460205078125 267.0119934082031 C 366.5460205078125 273.6520080566406 361.1640014648438 279.0339965820312 354.5250244140625 279.0339965820312 L 354.5250244140625 279.0249938964844 C 361.08203125 278.9299926757812 366.3710327148438 273.5920104980469 366.3710327148438 267.0119934082031 L 366.3909912109375 198.2940063476562 C 379.5270080566406 195.5419921875 389.0710144042969 192.2760009765625 398.5270080566406 188.8820190429688 C 402.3200073242188 187.52001953125 405.8240051269531 184.8820190429688 405.8240051269531 178.8820190429688 C 405.8240051269531 174.8509826660156 402.5289916992188 173.8629455566406 400.2770080566406 174.2870178222656 C 389.72900390625 176.27001953125 381.4660034179688 179.5679931640625 367.7050170898438 182.7409973144531 L 367.3300170898438 182.7400207519531 C 367.3300170898438 172.9930114746094 366.14501953125 141.9049987792969 363.8420104980469 132.8860168457031 C 351.4650268554688 84.40802001953125 307.947998046875 48.5989990234375 256.1650085449219 48.5989990234375 M 366.3670043945312 183.0450134277344 L 366.3670043945312 183.0440063476562 C 366.7410278320312 182.9609985351562 367.114013671875 182.8770141601562 367.4800109863281 182.7929992675781 C 367.114013671875 182.8770141601562 366.7410278320312 182.9609985351562 366.3670043945312 183.0450134277344 M 145.0323486328125 182.8528747558594 C 145.193603515625 182.8892517089844 145.356201171875 182.9256286621094 145.5180053710938 182.9620056152344 L 145.5180053710938 182.9630126953125 C 145.3555297851562 182.9259643554688 145.1934509277344 182.8893432617188 145.0323486328125 182.8528747558594 C 144.9454040527344 182.833251953125 144.8588562011719 182.8136291503906 144.7730102539062 182.7940063476562 C 144.8591003417969 182.8135986328125 144.9455871582031 182.8332214355469 145.0323486328125 182.8528747558594 M 160.2720031738281 185.7919921875 L 160.375 185.8090209960938 L 160.2720031738281 185.7919921875 M 157.7050170898438 279.0339965820312 C 157.6460266113281 279.0339965820312 157.5880126953125 279.0260009765625 157.5290222167969 279.0249938964844 L 157.5449523925781 221.8699951171875 L 157.6100158691406 200.4420166015625 L 157.7140197753906 200.4590148925781 L 157.7200012207031 221.8699951171875 L 157.7050170898438 279.0339965820312 M 256.1650085449219 40.5989990234375 C 310.5520629882812 40.5989990234375 358.0179443359375 77.73501586914062 371.5933837890625 130.9070129394531 C 373.6456604003906 138.9441528320312 374.71142578125 159.4851989746094 375.1234130859375 172.6118774414062 C 377.5064392089844 171.9589538574219 379.733154296875 171.3164978027344 381.876708984375 170.6986389160156 C 387.4808349609375 169.0831909179688 392.7741394042969 167.557373046875 398.7989501953125 166.4247436523438 C 399.2862548828125 166.3331298828125 400.767822265625 166.1964416503906 401.2637634277344 166.1964416503906 C 408.4244384765625 166.1968688964844 413.8240051269531 171.6504516601562 413.8240051269531 178.8820190429688 C 413.8240051269531 187.2698974609375 409.3515625 193.4952087402344 401.2306518554688 196.4113159179688 C 393.0867004394531 199.3343811035156 384.8505859375 202.1723022460938 374.3909912109375 204.6931762695312 L 374.3909912109375 240.1044311523438 C 385.1619873046875 246.8779296875 391.8890075683594 258.8042602539062 391.8890075683594 271.7350158691406 C 391.8890075683594 289.5929565429688 379.2964782714844 304.5651245117188 362.5250244140625 308.2378845214844 L 362.5250244140625 319.1500244140625 C 362.5250244140625 353.2161254882812 346.4082946777344 384.8478393554688 319.1300048828125 404.8927612304688 L 319.1300048828125 440.8600158691406 C 319.1300048828125 475.6981201171875 290.7871398925781 504.041015625 255.9490051269531 504.041015625 C 221.1113891601562 504.041015625 192.7689514160156 475.6981201171875 192.7689514160156 440.8600158691406 L 192.7689514160156 404.6344604492188 C 165.70166015625 384.5767822265625 149.7239990234375 353.0709838867188 149.7239990234375 319.1500244140625 L 149.7239990234375 308.2378845214844 C 132.9525451660156 304.5651245117188 120.3600158691406 289.5929565429688 120.3600158691406 271.7350158691406 C 120.3600158691406 258.9588623046875 126.9472351074219 247.1292419433594 137.5080261230469 240.3167419433594 L 137.5080261230469 204.6084594726562 C 127.2094116210938 202.1082153320312 119.0706176757812 199.3016052246094 111.0192565917969 196.41162109375 C 102.8973388671875 193.4951171875 98.42495727539062 187.2698059082031 98.42495727539062 178.8820190429688 C 98.42495727539062 171.6500549316406 103.8242492675781 166.1964416503906 110.9841918945312 166.1964416503906 C 111.48095703125 166.1964416503906 112.9643859863281 166.333251953125 113.45263671875 166.4252014160156 C 119.4742736816406 167.5578308105469 124.7668762207031 169.083251953125 130.3702697753906 170.6981811523438 C 132.5165405273438 171.3167724609375 134.746337890625 171.9600219726562 137.1326599121094 172.6137390136719 C 137.5747680664062 159.23779296875 138.72314453125 138.7930908203125 140.7377014160156 130.9028930664062 C 154.315185546875 77.73318481445312 201.7806396484375 40.5989990234375 256.1650085449219 40.5989990234375 Z" stroke="none" fill="#4e342e"/>
          </g>
          <path id="Path_507" data-name="Path 507" d="M283.039,303.538a5.85,5.85,0,0,1-11.7,0,15.215,15.215,0,0,1-30.431,0,5.849,5.849,0,1,1-11.7,0" fill="none" stroke="#4e342e" stroke-linecap="round" stroke-linejoin="round" stroke-width="6"/>
          <path id="Path_508" data-name="Path 508" d="M354.525,301.1a29.271,29.271,0,0,0,12.049-55.946" fill="none" stroke="#4e342e" stroke-linecap="round" stroke-linejoin="round" stroke-width="6"/>
          <path id="Path_509" data-name="Path 509" d="M145.5,245.213A29.272,29.272,0,0,0,157.676,301.1" fill="none" stroke="#4e342e" stroke-linecap="round" stroke-linejoin="round" stroke-width="6"/>
          <path id="Path_510" data-name="Path 510" d="M157.705,279.034a12.022,12.022,0,0,1-12.022-12.022V183.734a110.442,110.442,0,1,1,220.883,0l-.02,83.278a12.021,12.021,0,0,1-12.021,12.022" fill="none" stroke="#4e342e" stroke-linecap="round" stroke-linejoin="round" stroke-width="6"/>
          <path id="Path_511" data-name="Path 511" d="M157.724,198.14a30,30,0,0,1,30.9-29.986c14.918.445,36.54.8,67.5.8s52.58-.359,67.5-.8a30,30,0,0,1,30.9,29.986V316.276c0,54.257-43.4,99.23-97.654,99.632a98.4,98.4,0,0,1-99.147-98.4Z" fill="none" stroke="#4e342e" stroke-linecap="round" stroke-linejoin="round" stroke-width="6"/>
          <line id="Line_13" data-name="Line 13" x2="62.918" transform="translate(222.916 348.563)" fill="none" stroke="#4e342e" stroke-linecap="round" stroke-linejoin="round" stroke-width="6"/>
          <path id="Path_512" data-name="Path 512" d="M354.525,279.034a19.245,19.245,0,0,1-19.246,19.245c-12.7,0-17.185,7-17.185,18.3" fill="none" stroke="#4e342e" stroke-linecap="round" stroke-linejoin="round" stroke-width="6"/>
          <path id="Path_513" data-name="Path 513" d="M157.676,279.034a19.245,19.245,0,0,0,19.245,19.245c12.7,0,17.186,7,17.186,18.3" fill="none" stroke="#4e342e" stroke-linecap="round" stroke-linejoin="round" stroke-width="6"/>
          <path id="Path_514" data-name="Path 514" d="M200.769,400.624V440.86a55.181,55.181,0,1,0,110.361,0V400.624" fill="none" stroke="#4e342e" stroke-linecap="round" stroke-linejoin="round" stroke-width="6"/>
        </g>
        <g id="hat">
          <g id="Group_108" data-name="Group 108">
            <path id="Path_515" data-name="Path 515" d="M144.92,182.74c0-9.749,1.265-40.838,3.569-49.858C160.868,84.406,204.384,48.6,256.165,48.6s95.3,35.809,107.677,84.287c2.3,9.019,3.488,40.107,3.488,49.854h.38c-19.27,4.443-49.332,8.641-111.585,8.641s-92.315-4.2-111.586-8.641Z" fill="#ffab91"/>
            <path id="Path_516" data-name="Path 516" d="M144.92,182.74c0-9.749,1.265-28.838,3.569-37.858l.042.01c19.416,4.1,49.479,7.768,107.634,7.768,58.2,0,88.261-3.668,107.676-7.776v0c2.3,9.019,3.488,28.107,3.488,37.854h.38c-19.27,4.443-49.332,8.641-111.585,8.641s-92.315-4.2-111.586-8.641Z" fill="#ff8a65"/>
            <path id="Path_517" data-name="Path 517" d="M256.125,205.976c-91.667,0-117.334-8.094-142.4-17.094-3.793-1.362-7.3-4-7.3-10,0-4.031,3.295-5.019,5.547-4.6,25.319,4.761,37.446,17.1,144.153,17.1s118.833-12.334,144.152-17.1c2.252-.424,5.547.564,5.547,4.6,0,6-3.5,8.638-7.3,10C373.458,197.882,347.791,205.976,256.125,205.976Z" fill="#ffab91"/>
          </g>
          <g id="Group_111" data-name="Group 111">
            <g id="Group_109" data-name="Group 109">
              <path id="Path_518" data-name="Path 518" d="M256.125,205.976c-91.667,0-117.334-8.094-142.4-17.094-3.793-1.362-7.3-4-7.3-10,0-4.031,3.295-5.019,5.547-4.6,25.319,4.761,37.446,17.1,144.153,17.1s118.833-12.334,144.152-17.1c2.252-.424,5.547.564,5.547,4.6,0,6-3.5,8.638-7.3,10C373.458,197.882,347.791,205.976,256.125,205.976Z" fill="none" stroke="#4e342e" stroke-linecap="round" stroke-miterlimit="10" stroke-width="6"/>
              <path id="Path_519" data-name="Path 519" d="M148.531,144.892c19.416,4.1,49.479,7.768,107.634,7.768,58.2,0,88.261-3.668,107.676-7.776" fill="none" stroke="#4e342e" stroke-linecap="round" stroke-miterlimit="10" stroke-width="6"/>
              <path id="Path_520" data-name="Path 520" d="M144.92,182.74c0-9.749,1.265-40.838,3.569-49.858C160.868,84.406,204.384,48.6,256.165,48.6s95.3,35.809,107.677,84.287c2.3,9.019,3.488,40.107,3.488,49.854" fill="none" stroke="#4e342e" stroke-linecap="round" stroke-linejoin="round" stroke-width="6"/>
            </g>
            <g id="Group_110" data-name="Group 110">
              <path id="Path_521" data-name="Path 521" d="M256.125,205.976c-91.667,0-117.334-8.094-142.4-17.094-3.793-1.362-7.3-4-7.3-10,0-4.031,3.295-5.019,5.547-4.6,25.319,4.761,37.446,17.1,144.153,17.1s118.833-12.334,144.152-17.1c2.252-.424,5.547.564,5.547,4.6,0,6-3.5,8.638-7.3,10C373.458,197.882,347.791,205.976,256.125,205.976Z" fill="none" stroke="#593226" stroke-linecap="round" stroke-linejoin="round" stroke-width="6"/>
              <path id="Path_522" data-name="Path 522" d="M148.531,144.892c19.416,4.1,49.479,7.768,107.634,7.768,58.2,0,88.261-3.668,107.676-7.776" fill="none" stroke="#593226" stroke-linecap="round" stroke-linejoin="round" stroke-width="6"/>
              <path id="Path_523" data-name="Path 523" d="M144.92,182.74c0-9.749,1.265-40.838,3.569-49.858C160.868,84.406,204.384,48.6,256.165,48.6s95.3,35.809,107.677,84.287c2.3,9.019,3.488,40.107,3.488,49.854" fill="none" stroke="#593226" stroke-linecap="round" stroke-linejoin="round" stroke-width="6"/>
            </g>
          </g>
        </g>
      </g>
    </g>
  </g>
</svg>