
<!-- Uploaded to: SVG Repo, www.svgrepo.com, Generator: SVG Repo Mixer Tools -->
<svg fill="#000000" height="800px" width="800px" version="1.1" id="Layer_1" xmlns="http://www.w3.org/2000/svg" xmlns:xlink="http://www.w3.org/1999/xlink" 
	 viewBox="0 0 508 508" xml:space="preserve">
<g>
	<g>
		<path d="M419.2,416.5c-22.5,0-34.2-36.2-34.2-36.2c49.7-39,81.8-99.6,81.8-167.5C466.8,95.5,371.3,0,254,0S41.2,95.5,41.2,212.8
			c0,68,32.1,128.5,81.8,167.5c0,0-9,36.2-34.2,36.2c-30.8,0-55.9,25.1-55.9,55.9v21.5c0,7.8,6.3,14.1,14.1,14.1h414
			c7.8,0,14.1-6.3,14.1-14.1v-21.5C475.1,441.6,450,416.5,419.2,416.5z M69.4,212.8C69.4,111,152.2,28.2,254,28.2
			S438.6,111,438.6,212.8S355.8,397.4,254,397.4S69.4,314.6,69.4,212.8z M446.9,479.8H61.1v-7.4c0-15.3,12.4-27.7,27.7-27.7
			c41.8,0,57.9-48.3,57.9-48.3c31.5,18.5,68.2,29.2,107.3,29.2c39.1,0,75.8-10.7,107.3-29.2c0,0,13.5,48.3,57.9,48.3
			c15.3,0,27.7,12.4,27.7,27.7V479.8z"/>
	</g>
<svg fill="#000000" height="800px" width="800px" version="1.1" id="Layer_1" xmlns="http://www.w3.org/2000/svg" xmlns:xlink="http://www.w3.org/1999/xlink" 
	 viewBox="0 0 508 508" xml:space="preserve">
</svg>
</g>
<g>
	<g>
		<path d="M254,101.3c-61.5,0-111.5,50-111.5,111.5s50,111.5,111.5,111.5s111.5-50,111.5-111.5S315.5,101.3,254,101.3z M254,296
			c-45.9,0-83.2-37.3-83.2-83.2s37.3-83.2,83.2-83.2c45.9,0,83.2,37.3,83.2,83.2C337.2,258.7,299.9,296,254,296z"/>
	</g>
</g>
<g>
	<g>
		<path d="M254,152.9c-33,0-59.9,26.9-59.9,59.9s26.9,59.9,59.9,59.9s59.9-26.9,59.9-59.9S287,152.9,254,152.9z M254,244.5
			c-17.5,0-31.7-14.2-31.7-31.7s14.2-31.7,31.7-31.7s31.7,14.2,31.7,31.7S271.5,244.5,254,244.5z"/>
	</g>
</g>
<g>
	<g>
		<path d="M254,35.9c-7.8,0-14.1,6.3-14.1,14.1v13.3c0,7.8,6.3,14.2,14.1,14.2s14.1-6.3,14.1-14.1V50
			C268.1,42.2,261.8,35.9,254,35.9z"/>
	</g>
</g>
</svg>